<svg xmlns="http://www.w3.org/2000/svg" viewBox="0 0 102 97"><defs><style>.cls-1{font-size:13px;fill:#fff;font-family:AxisCondProN-Bold-83pv-RKSJ-H, AXIS Condensed ProN;}.cls-2{letter-spacing:0.2em;}</style></defs><title>ad_02</title><g id="レイヤー_2" data-name="レイヤー 2"><g id="レイヤー_1-2" data-name="レイヤー 1"><rect x="52" y="53" width="4" height="9"/><rect x="67" y="53" width="4" height="9"/><rect x="52" y="68" width="4" height="9"/><rect x="67" y="68" width="4" height="9"/><path d="M81,8H71V0H67V8H21L0,39H9V97H93V39h9ZM36,93H26V74H36Zm53,0H40V70H22V93H13V39H89ZM9,35H7.54L23.12,12H78.88L94.46,35H9Z"/><rect x="65" y="68" width="37" height="22"/><text class="cls-1" transform="translate(74.28 83.49)"><tspan class="cls-2">A</tspan><tspan x="10.31" y="0">D</tspan></text></g></g></svg>