<svg id="グループ_1" data-name="グループ 1" xmlns="http://www.w3.org/2000/svg" width="375.344" height="58.188" viewBox="0 0 375.344 58.188">
  <metadata><?xpacket begin="﻿" id="W5M0MpCehiHzreSzNTczkc9d"?>
<x:xmpmeta xmlns:x="adobe:ns:meta/" x:xmptk="Adobe XMP Core 5.6-c142 79.160924, 2017/07/13-01:06:39        ">
   <rdf:RDF xmlns:rdf="http://www.w3.org/1999/02/22-rdf-syntax-ns#">
      <rdf:Description rdf:about=""/>
   </rdf:RDF>
</x:xmpmeta>
                                                                                                    
                                                                                                    
                                                                                                    
                                                                                                    
                                                                                                    
                                                                                                    
                                                                                                    
                                                                                                    
                                                                                                    
                                                                                                    
                                                                                                    
                                                                                                    
                                                                                                    
                                                                                                    
                                                                                                    
                                                                                                    
                                                                                                    
                                                                                                    
                                                                                                    
                                                                                                    
                           
<?xpacket end="w"?></metadata>
<defs>
    <style>
      .cls-1 {
        fill: #222;
        fill-rule: evenodd;
      }
    </style>
  </defs>
  <path id="MOCHICOM" class="cls-1" d="M16.714,8.147a2.147,2.147,0,0,1,2.24,1.89L23.925,30.41c0.14,0.7.7,0.7,0.84,0l4.97-20.372a2.147,2.147,0,0,1,2.24-1.89H46.467a1.856,1.856,0,0,1,2.1,2.1v44.8a1.885,1.885,0,0,1-2.1,2.1H38.626a1.916,1.916,0,0,1-2.1-2.1V27.469a0.387,0.387,0,0,0-.77-0.07L28.965,55.332a2.159,2.159,0,0,1-2.31,1.82h-4.62a2.16,2.16,0,0,1-2.31-1.82L12.934,27.4a0.387,0.387,0,0,0-.77.07V55.052a1.885,1.885,0,0,1-2.1,2.1H2.222a1.885,1.885,0,0,1-2.1-2.1v-44.8a1.856,1.856,0,0,1,2.1-2.1H16.714ZM90.005,23.9c0-4.62-.98-17.012-17.572-17.012S54.862,19.278,54.862,23.9V41.4c0,4.621.98,17.012,17.572,17.012S90.005,46.021,90.005,41.4V23.9ZM77.964,37.69c0,5.391-.35,8.681-5.531,8.681S66.9,43.081,66.9,37.69V27.609c0-5.391.35-8.681,5.531-8.681s5.531,3.29,5.531,8.681V37.69ZM95.6,41.4c0,4.621.98,17.012,17.571,17.012,14.912,0,17.222-10.011,17.5-15.332a1.862,1.862,0,0,0-1.54-2.03l-7.911-1.75a2.183,2.183,0,0,0-2.73,2.03c-0.42,3.22-1.47,5.041-5.321,5.041-5.18,0-5.53-3.29-5.53-8.681V27.609c0-5.391.35-8.681,5.53-8.681,3.781,0,5.041,1.82,5.391,4.9a2.345,2.345,0,0,0,2.8,2.17l7.771-1.75a1.835,1.835,0,0,0,1.54-1.96c-0.28-5.391-2.59-15.4-17.5-15.4C96.581,6.887,95.6,19.278,95.6,23.9V41.4Zm49.84-33.253a1.916,1.916,0,0,1,2.1,2.1v17.5a1.916,1.916,0,0,0,2.1,2.1h6.721a1.885,1.885,0,0,0,2.1-2.1v-17.5a1.916,1.916,0,0,1,2.1-2.1H168.4a1.856,1.856,0,0,1,2.1,2.1v44.8a1.885,1.885,0,0,1-2.1,2.1h-7.841a1.916,1.916,0,0,1-2.1-2.1V43.991a1.856,1.856,0,0,0-2.1-2.1h-6.721a1.885,1.885,0,0,0-2.1,2.1V55.052a1.885,1.885,0,0,1-2.1,2.1H137.6a1.917,1.917,0,0,1-2.1-2.1v-44.8a1.857,1.857,0,0,1,2.1-2.1h7.84Zm41.86,0a1.856,1.856,0,0,1,2.1,2.1v44.8a1.885,1.885,0,0,1-2.1,2.1h-7.7a1.916,1.916,0,0,1-2.1-2.1v-44.8a1.885,1.885,0,0,1,2.1-2.1h7.7ZM195.7,41.4c0,4.621.98,17.012,17.572,17.012,14.911,0,17.222-10.011,17.5-15.332a1.862,1.862,0,0,0-1.541-2.03l-7.91-1.75a2.184,2.184,0,0,0-2.731,2.03c-0.42,3.22-1.47,5.041-5.32,5.041-5.181,0-5.531-3.29-5.531-8.681V27.609c0-5.391.35-8.681,5.531-8.681,3.78,0,5.04,1.82,5.39,4.9a2.346,2.346,0,0,0,2.8,2.17l7.77-1.75a1.835,1.835,0,0,0,1.541-1.96c-0.28-5.391-2.591-15.4-17.5-15.4C196.679,6.887,195.7,19.278,195.7,23.9V41.4Zm74.343-17.5c0-4.62-.98-17.012-17.571-17.012S234.9,19.278,234.9,23.9V41.4c0,4.621.98,17.012,17.572,17.012S270.042,46.021,270.042,41.4V23.9ZM258,37.69c0,5.391-.35,8.681-5.53,8.681s-5.531-3.29-5.531-8.681V27.609c0-5.391.35-8.681,5.531-8.681s5.53,3.29,5.53,8.681V37.69ZM292.93,8.147a2.147,2.147,0,0,1,2.24,1.89l4.97,20.372c0.14,0.7.7,0.7,0.84,0l4.971-20.372a2.147,2.147,0,0,1,2.24-1.89h14.492a1.856,1.856,0,0,1,2.1,2.1v44.8a1.885,1.885,0,0,1-2.1,2.1h-7.841a1.916,1.916,0,0,1-2.1-2.1V27.469a0.387,0.387,0,0,0-.77-0.07l-6.791,27.933a2.159,2.159,0,0,1-2.31,1.82H298.25a2.159,2.159,0,0,1-2.31-1.82L289.149,27.4a0.387,0.387,0,0,0-.77.07V55.052a1.885,1.885,0,0,1-2.1,2.1h-7.841a1.885,1.885,0,0,1-2.1-2.1v-44.8a1.856,1.856,0,0,1,2.1-2.1H292.93Z" transform="translate(-0.125 -0.219)"/>
  <path id="beta" class="cls-1" d="M336.055,0.549a0.5,0.5,0,0,0-.54.558V12.612a0.493,0.493,0,0,0,.54.54H340.5c3.385,0,4.376-1.08,4.376-3.313A2.532,2.532,0,0,0,343.6,7.481a4.115,4.115,0,0,0,.918-2.611c0-2.953-1.3-4.321-4.681-4.321h-3.781Zm3.1,5.546a0.485,0.485,0,0,1-.54-0.54V4.186a0.485,0.485,0,0,1,.54-0.54h0.972c0.864,0,1.3.108,1.3,1.224s-0.433,1.224-1.3,1.224h-0.972Zm-0.018,4.5a0.485,0.485,0,0,1-.54-0.54V9.227a0.485,0.485,0,0,1,.54-0.54h1.17c0.864,0,1.261.126,1.261,0.972s-0.433.936-1.3,0.936h-1.134ZM354.165,0.549a0.477,0.477,0,0,1,.54.54V3.105a0.485,0.485,0,0,1-.54.54h-4.357a0.485,0.485,0,0,0-.54.54V4.762a0.493,0.493,0,0,0,.54.54H352.6a0.477,0.477,0,0,1,.54.54V7.859a0.485,0.485,0,0,1-.54.54h-2.791a0.485,0.485,0,0,0-.54.54V9.515a0.493,0.493,0,0,0,.54.54h4.357a0.477,0.477,0,0,1,.54.54v2.017a0.477,0.477,0,0,1-.54.54H346.6a0.493,0.493,0,0,1-.54-0.54V1.089a0.485,0.485,0,0,1,.54-0.54h7.562Zm4.8,3.637a0.477,0.477,0,0,0-.54-0.54h-2.52a0.493,0.493,0,0,1-.541-0.54V1.089a0.485,0.485,0,0,1,.541-0.54h9.218a0.477,0.477,0,0,1,.54.54V3.105a0.485,0.485,0,0,1-.54.54h-2.52a0.485,0.485,0,0,0-.541.54v8.427a0.485,0.485,0,0,1-.54.54H359.51a0.493,0.493,0,0,1-.541-0.54V4.186Zm16.508,8.355a0.516,0.516,0,0,1-.54.612H372.92a0.485,0.485,0,0,1-.54-0.54V11.046a0.477,0.477,0,0,0-.54-0.54h-1.548a0.485,0.485,0,0,0-.541.54v1.566a0.477,0.477,0,0,1-.54.54H367.2a0.525,0.525,0,0,1-.541-0.612V4.906c0-2.269.361-4.681,4.412-4.681s4.411,2.413,4.411,4.681V12.54Zm-3.1-7.634c0-.864-0.126-1.3-1.314-1.3s-1.315.432-1.315,1.3V6.868a0.493,0.493,0,0,0,.541.54h1.548a0.5,0.5,0,0,0,.54-0.558V4.906Z" transform="translate(-0.125 -0.219)"/>
</svg>

